<svg width="150" height="39" viewBox="0 0 150 39" fill="none" xmlns="http://www.w3.org/2000/svg">
<path d="M149.644 2.60313C149.113 1.87823 148.581 1.33294 145.925 1.15332C145.219 1.15332 143.094 0.967285 139.375 0.967285C129.625 0.967285 122.9 4.05936 119.531 10.0575C120.419 4.05936 114.75 0.967285 102.35 0.967285C87.8252 0.967285 78.6127 6.9654 74.894 19.1477C73.4815 23.696 73.4815 27.3333 74.544 30.2458H71.0002C68.344 30.419 64.8002 30.605 62.5002 30.605C57.1877 30.605 53.8127 29.6941 52.5752 27.8786C51.5127 26.2428 51.5127 23.1507 52.9315 18.6024C55.2315 11.148 60.7252 7.87634 69.5815 7.87634C74.1877 7.87634 78.6127 8.42162 78.6127 8.42162C79.144 8.42162 79.5002 7.69672 79.5002 7.15143L79.3252 6.60615L78.969 4.05936C78.794 2.42351 77.5502 1.51256 75.4252 1.15332C73.4815 0.967281 71.8815 0.967285 69.7565 0.967285H69.5815C58.069 0.967285 49.919 4.9703 45.494 12.6043C47.0877 4.78427 41.769 0.967285 29.5502 0.967285C22.644 0.967285 17.6752 1.15332 14.844 1.51257C12.544 1.87823 11.1252 2.78917 10.594 4.42502L9.53147 7.69672C9.35647 8.242 9.71272 8.60766 10.419 8.60766C10.9502 8.60766 13.0752 8.242 16.619 8.05596C20.0953 7.75362 23.5807 7.57175 27.069 7.51068C33.8002 7.51068 36.8127 9.33257 35.7502 12.7839C35.569 13.5152 35.0377 14.0605 34.1565 14.2401C27.7815 15.3307 22.644 16.062 18.919 16.6073C8.29397 18.0571 2.09397 21.3288 0.500218 26.788C-1.80603 34.2424 3.86272 37.8733 17.5002 37.8733C24.2377 37.8733 30.0815 37.5141 34.6877 36.6031C37.344 36.0578 38.7627 35.5126 39.294 33.6971L41.769 25.3318C41.594 33.6971 47.0815 37.8733 58.7752 37.8733C63.7377 37.8733 68.519 37.6937 70.819 37.328C73.1252 36.9688 74.3627 36.4235 74.894 34.6016L75.4252 32.0612C77.9065 36.0578 83.4002 38.0594 91.7252 38.0594C100.581 38.0594 105.719 37.8733 107.131 37.328C107.644 37.21 108.121 36.9671 108.522 36.6198C108.924 36.2726 109.238 35.8311 109.438 35.3329L109.613 34.7877L110.675 31.3299C110.856 30.7846 110.5 30.419 109.788 30.419L104.125 30.7846C100.4 30.9707 97.394 31.1503 95.2627 31.1503C91.194 31.1503 88.5377 30.7846 86.9377 30.2394C84.6377 29.3284 83.5752 27.6926 83.7502 24.9662L101.644 22.6054C109.613 21.5148 115.106 18.968 117.763 14.9714L111.563 36.2375C111.388 36.6031 111.563 36.9688 111.738 37.1484C111.919 37.328 112.269 37.5141 112.981 37.5141H120.419C121.656 37.5141 122.188 36.7828 122.369 36.2375L128.919 12.7839C129.806 9.69823 132.463 8.242 137.419 8.242C141.856 8.242 145.044 8.242 147.169 8.42162H147.344C147.7 8.42162 148.406 8.242 148.938 7.33106L150 4.05936C150 3.51407 150 2.9688 149.644 2.60313ZM30.2565 30.6114C27.9565 30.9771 24.5877 31.1567 20.3377 31.1567C12.719 31.1567 9.53147 29.5209 10.419 26.4288C11.1252 24.2477 13.0752 22.7914 16.2627 22.4258L33.4502 20.065L30.2565 30.6114ZM109.438 11.6869C108.725 14.0541 105.363 15.6899 99.3377 16.6009L84.994 18.596L85.344 17.3258C86.5877 13.3228 88.1815 10.7824 90.3065 9.32615C92.4315 7.86992 95.9752 7.14502 100.931 7.14502C107.494 7.32464 110.331 8.78087 109.438 11.6869Z" fill="#F8F8F8"/>
</svg>
