<svg width="82" height="135" viewBox="0 0 82 135" fill="none" xmlns="http://www.w3.org/2000/svg">
<path d="M40.9999 105.646C38.1639 105.647 35.4166 104.477 33.2318 102.338C31.0471 100.198 29.5619 97.2239 29.0325 93.9277C21.0653 91.0244 14.0502 85.2813 8.94602 77.4833C5.08854 71.6066 2.43799 64.7499 1.20344 57.454C-0.0311064 50.1581 0.184109 42.6227 1.83211 35.4421C3.48012 28.2614 6.51583 21.632 10.6998 16.0767C14.8838 10.5214 20.1016 6.1922 25.9416 3.43055C31.7817 0.668911 38.0842 -0.44963 44.3521 0.163162C50.6201 0.775953 56.6819 3.10332 62.0595 6.96167C67.4371 10.82 71.9835 16.1038 75.3399 22.3963C78.6963 28.6888 80.7709 35.8179 81.4002 43.2211C81.6195 45.8626 79.7764 48.0142 77.5356 48.0142C75.2947 48.0142 73.5004 45.853 73.2325 43.2211C72.5079 36.4286 70.2622 29.9884 66.7279 24.5671C63.1936 19.1458 58.4991 14.9402 53.1299 12.3855C47.7608 9.83087 41.9123 9.01993 36.1893 10.0366C30.4664 11.0533 25.0771 13.8607 20.579 18.1683C16.0809 22.4758 12.6374 28.1271 10.6049 34.5374C8.57229 40.9477 8.0245 47.8841 9.01814 54.6289C10.0118 61.3737 12.5108 67.6819 16.2565 72.9007C20.0023 78.1195 24.8588 82.0594 30.3234 84.3127C31.3565 82.0829 32.8701 80.2163 34.7103 78.9025C36.5505 77.5886 38.6519 76.8743 40.8009 76.8322C42.95 76.79 45.0702 77.4215 46.9462 78.6624C48.8223 79.9034 50.3873 81.7096 51.4823 83.8977C52.5773 86.0858 53.1634 88.5777 53.181 91.1205C53.1985 93.6632 52.647 96.1661 51.5823 98.3751C50.5176 100.584 48.9778 102.42 47.1191 103.697C45.2605 104.974 43.1493 105.647 40.9999 105.646ZM8.52383 91.2382V90.9788C6.3049 88.6253 4.27213 86.0371 2.45079 83.2465C1.11384 85.6113 0.401643 88.3932 0.404796 91.2382V96.0408C0.404796 114.973 15.5062 134.462 40.9999 134.462C66.4937 134.462 81.5951 114.973 81.5951 96.0408V91.2382C81.5951 87.4169 80.312 83.7522 78.0281 81.0502C75.7442 78.3482 72.6465 76.8302 69.4165 76.8302H57.238C59.0161 79.6157 60.2826 82.8815 60.8916 86.4355H69.4165C70.4932 86.4355 71.5258 86.9415 72.2871 87.8422C73.0484 88.7429 73.4761 89.9644 73.4761 91.2382V96.0408C73.4761 109.853 61.8496 124.857 40.9999 124.857C20.1503 124.857 8.52383 109.853 8.52383 96.0408V91.2382ZM40.9999 67.2249C36.3532 67.2168 31.846 69.1028 28.2368 72.5654C24.6866 69.9933 21.7554 66.3839 19.7249 62.0843C17.6945 57.7846 16.6331 52.9393 16.6429 48.0142C16.6441 42.9904 17.7554 38.0543 19.8667 33.6954C21.9779 29.3365 25.0157 25.7064 28.6788 23.1651C32.3418 20.6238 36.5028 19.2596 40.749 19.2079C44.9952 19.1561 49.1791 20.4186 52.8856 22.8701C56.5921 25.3216 59.6925 28.8769 61.8792 33.1833C64.066 37.4898 65.263 42.3978 65.3517 47.4205C65.4404 52.4432 64.4176 57.4061 62.3848 61.8168C60.352 66.2276 57.3798 69.9329 53.7631 72.5654C50.1539 69.1028 45.6467 67.2168 40.9999 67.2249ZM24.7619 48.0142C24.7619 53.1092 26.4727 57.9955 29.5179 61.5982C32.5631 65.2009 36.6933 67.2249 40.9999 67.2249C45.3065 67.2249 49.4368 65.2009 52.482 61.5982C55.5272 57.9955 57.238 53.1092 57.238 48.0142C57.238 42.9192 55.5272 38.0329 52.482 34.4302C49.4368 30.8275 45.3065 28.8035 40.9999 28.8035C36.6933 28.8035 32.5631 30.8275 29.5179 34.4302C26.4727 38.0329 24.7619 42.9192 24.7619 48.0142Z" fill="white"/>
</svg>
