<svg width="138" height="135" viewBox="0 0 138 135" fill="none" xmlns="http://www.w3.org/2000/svg">
<path d="M12.7914 67.2311C5.9214 67.2311 0.300537 60.508 0.300537 52.2908V14.9402C0.300537 6.72311 5.9214 0 12.7914 0H62.7546C69.6246 0 75.2454 6.72311 75.2454 14.9402V52.2908C75.2454 60.508 69.6246 67.2311 62.7546 67.2311H50.2638V89.6414L31.5276 67.2311H12.7914ZM125.209 112.052C132.079 112.052 137.7 105.329 137.7 97.1116V59.761C137.7 51.5438 132.079 44.8207 125.209 44.8207H87.7362V52.2908C87.7362 68.7251 76.4945 82.1713 62.7546 82.1713V97.1116C62.7546 105.329 68.3755 112.052 75.2454 112.052H87.7362V134.462L106.472 112.052H125.209Z" fill="white"/>
</svg>
