<svg width="150" height="150" viewBox="0 0 150 150" fill="none" xmlns="http://www.w3.org/2000/svg">
<path d="M112.269 91.25V58.275H119.906V84.55H133.281V91.2375H112.269V91.25ZM51.1187 70.7L69.7438 56.375C71.5 57.8 73.2438 59.2375 75 60.6687L57.3313 74.0437L61.15 77.3875L78.8187 63.5375C80.575 64.9625 82.3187 66.4 84.075 67.8375C78.2135 72.4899 72.3238 77.1066 66.4062 81.6875L70.2188 85.0375L87.9062 70.6937L87.9 58.2812H95.5437V84.5563H109.394V91.2438H88.3812V78.825C82.1625 83.5938 75.9625 88.3812 69.75 93.15L51.1187 78.825C50.2188 83.3813 47.0375 87.325 42.9188 89.4125C41.1328 90.3293 39.195 90.9138 37.2 91.1375C36.0563 91.275 34.9062 91.2438 33.7562 91.2438H21.975V58.2812H35.5625C39.1163 58.3173 42.5556 59.5429 45.3312 61.7625C48.1687 64.0125 50.1938 67.2125 51.125 70.7M29.15 64.9688V85.0312L35.1063 85.025C36.3584 84.9843 37.5866 84.6707 38.7049 84.1061C39.8233 83.5415 40.8049 82.7395 41.5812 81.7562C42.8934 80.1097 43.6993 78.1176 43.9012 76.0219C44.1031 73.9261 43.6924 71.8168 42.7188 69.95C42.1043 68.7616 41.2417 67.7191 40.1892 66.8931C39.1368 66.0671 37.9191 65.4769 36.6188 65.1625C35.5813 64.9125 34.5063 64.975 33.45 64.9625L29.15 64.9688ZM73.875 0H75.9812C87.7612 0.153824 99.3373 3.09444 109.763 8.58125C119.936 13.9354 128.756 21.5384 135.55 30.8125C144.728 43.3145 149.779 58.3673 150 73.875V76.125C149.765 94.799 142.55 112.709 129.775 126.331C122.889 133.686 114.589 139.573 105.372 143.64C96.155 147.707 86.2112 149.871 76.1375 150H73.8812C65.0159 149.866 56.2445 148.161 47.975 144.962C37.901 141.041 28.7901 134.996 21.2625 127.237C13.2065 118.954 7.16327 108.929 3.6 97.9375C1.33025 90.8863 0.117092 83.5378 0 76.1312L0 73.875C0.244772 59.6341 4.5653 45.7615 12.45 33.9C19.8163 22.7861 29.9657 13.796 41.8875 7.825C51.8295 2.85427 62.7611 0.180117 73.875 0ZM72.9187 7.6875C58.2598 8.1057 44.1425 13.3201 32.7313 22.5312C23.3984 30.0444 16.2378 39.9105 11.9875 51.1125C5.80895 67.5482 6.24131 85.7389 13.1938 101.863C17.9867 112.883 25.6382 122.423 35.3563 129.494C44.1837 135.931 54.454 140.107 65.2687 141.656C74.3688 142.963 83.7375 142.431 92.6188 140.031C104.775 136.749 115.766 130.118 124.337 120.894C132.916 111.685 138.733 100.25 141.125 87.8937C142.991 78.1993 142.731 68.2153 140.363 58.6312C137.603 47.5827 132.086 37.4148 124.328 29.079C116.569 20.7432 106.823 14.5121 96 10.9688C88.5554 8.54209 80.7447 7.43172 72.9187 7.6875Z" fill="#F8F8F8"/>
</svg>
