<svg width="21" height="18" viewBox="0 0 21 18" fill="none" xmlns="http://www.w3.org/2000/svg">
<path d="M9.1312 12.1046C9.1312 11.4509 8.88209 10.9027 8.38388 10.4578C8.03079 10.1518 7.55207 9.95047 6.94663 9.85465C6.35093 9.75957 5.78773 9.75288 5.27868 9.83385C5.10539 9.12819 5.38699 8.38093 6.10182 7.5891C6.81666 6.79801 7.74269 6.20228 8.87235 5.80414L7.15999 4.11426C6.29353 4.40841 5.47039 4.7813 4.71223 5.23218C3.94324 5.68306 3.2609 6.20154 2.65437 6.78761C2.04785 7.37368 1.59295 8.03552 1.30052 8.78575C1.00809 9.53598 0.926857 10.3011 1.06657 11.0884C1.24853 12.1284 1.73809 12.9603 2.53523 13.5768C3.3313 14.2015 4.32449 14.5135 5.51154 14.5135C6.55672 14.5135 7.42427 14.2981 8.11094 13.8613C8.79112 13.4335 9.12904 12.8474 9.12904 12.1024L9.1312 12.1046ZM19.0132 12.1046C19.0132 11.4509 18.7641 10.9027 18.2659 10.4578C17.9128 10.1458 17.4319 9.94378 16.8287 9.85093C16.2221 9.75883 15.6665 9.75437 15.1607 9.83459C14.9874 9.13636 15.2582 8.38612 15.9752 7.59132C16.69 6.80395 17.6139 6.20971 18.7436 5.80859L17.0355 4.11426C16.1691 4.40841 15.3513 4.7813 14.5878 5.23218C13.8118 5.68974 13.1226 6.2123 12.5364 6.78761C11.9342 7.37442 11.4858 8.03552 11.1934 8.78575C10.8975 9.53554 10.8177 10.3177 10.9584 11.0884C11.1382 12.1284 11.6255 12.9603 12.4205 13.5768C13.2144 14.1963 14.2044 14.5068 15.3914 14.5068C16.4388 14.5068 17.3063 14.2914 17.993 13.8554C18.6721 13.4275 19.0132 12.8415 19.0132 12.0964V12.1046Z" fill="#F8F8F8"/>
</svg>
