<svg width="144" height="146" viewBox="0 0 144 146" fill="none" xmlns="http://www.w3.org/2000/svg">
<g clip-path="url(#clip0_53_6)">
<path d="M144 73C144 32.6835 111.764 0 72 0C32.2357 0 0 32.6835 0 73C0 109.436 26.3295 139.637 60.75 145.113V94.1016H42.4688V73H60.75V56.9172C60.75 38.6216 71.4994 28.5156 87.9458 28.5156C95.823 28.5156 104.062 29.9414 104.062 29.9414V47.9062H94.9838C86.0394 47.9062 83.25 53.5335 83.25 59.3068V73H103.219L100.027 94.1016H83.25V145.113C117.671 139.637 144 109.437 144 73Z" fill="#1877F2"/>
<path d="M100.027 94.1016L103.219 73H83.25V59.3068C83.25 53.533 86.0394 47.9062 94.9838 47.9062H104.062V29.9414C104.062 29.9414 95.823 28.5156 87.9452 28.5156C71.4994 28.5156 60.75 38.6216 60.75 56.9172V73H42.4688V94.1016H60.75V145.113C64.4716 145.704 68.233 146.001 72 146C75.767 146.001 79.5284 145.704 83.25 145.113V94.1016H100.027Z" fill="white"/>
</g>
<defs>
<clipPath id="clip0_53_6">
<rect width="144" height="146" fill="white"/>
</clipPath>
</defs>
</svg>
