<svg width="20" height="24" viewBox="0 0 20 24" fill="none" xmlns="http://www.w3.org/2000/svg">
<path fill-rule="evenodd" clip-rule="evenodd" d="M9.90077 22.7671L10.8329 21.8014C11.8907 20.6876 12.842 19.6309 13.6885 18.6258L14.3873 17.7782C17.3049 14.1638 18.7644 11.2952 18.7644 9.17491C18.7644 4.64916 14.7965 0.980469 9.90077 0.980469C5.00508 0.980469 1.03711 4.64916 1.03711 9.17491C1.03711 11.2952 2.49666 14.1638 5.41428 17.7782L6.11303 18.6258C7.32061 20.0484 8.58403 21.4289 9.90077 22.7671Z" stroke="#F8F8F8" stroke-width="1.90476" stroke-linecap="round" stroke-linejoin="round"/>
<path d="M9.90071 12.5257C11.9404 12.5257 13.5939 11.0054 13.5939 9.13005C13.5939 7.25467 11.9404 5.73438 9.90071 5.73438C7.86102 5.73438 6.20752 7.25467 6.20752 9.13005C6.20752 11.0054 7.86102 12.5257 9.90071 12.5257Z" stroke="#F8F8F8" stroke-width="1.90476" stroke-linecap="round" stroke-linejoin="round"/>
</svg>
