<svg width="400" height="456" viewBox="0 0 400 456" fill="none" xmlns="http://www.w3.org/2000/svg">
<rect y="20.5338" width="400" height="432.289" fill="white"/>
<path d="M87.1548 150.439C87.1548 133.87 100.586 120.439 117.155 120.439H118.367V247.13H87.1548V150.439Z" fill="#3977B0"/>
<path d="M264.082 86.6027H296.082V205.603C296.082 222.171 282.65 235.603 266.082 235.603H264.082V86.6027Z" fill="#3977B0"/>
<path d="M103.224 162.11L96.2734 154.074C89.0477 145.719 90.1343 133.294 98.7004 126.32L182.533 58.0741L202.566 81.2371L103.224 162.11Z" fill="#3977B0"/>
<path d="M204.508 290.238L184.475 268.5L283.817 192.603L290.297 199.634C297.783 207.756 296.736 219.777 287.958 226.483L204.508 290.238Z" fill="#3977B0"/>
<rect width="46.7723" height="49.4522" transform="matrix(0.573576 -0.819152 0.836136 0.548523 52.918 254.521)" fill="white"/>
<path d="M182.48 58.0764H230.106V98.038H182.48V58.0764Z" fill="white"/>
<rect x="206.222" y="65.2445" width="31.212" height="117.478" fill="#3977B0"/>
<rect x="151.082" y="140.103" width="31" height="165" fill="#3977B0"/>
<rect width="47.7961" height="25.4948" transform="matrix(0.819152 -0.573576 0.598105 0.801418 130.094 150.94)" fill="white"/>
<rect width="59.1435" height="36.2573" transform="matrix(0.819152 0.573576 -0.598105 0.801418 145.412 260.092)" fill="white"/>
<rect width="61.8089" height="22.3663" transform="matrix(0.717727 0.696325 -0.717727 0.696325 204.343 149.388)" fill="white"/>
<rect width="59.1435" height="36.2573" transform="matrix(0.819152 0.573576 -0.598105 0.801418 223.93 39.3274)" fill="white"/>
<rect width="69.5936" height="46.1193" transform="matrix(0.819152 0.573576 -0.598105 0.801418 281.238 61.6658)" fill="white"/>
<rect x="182.571" y="245.702" width="24.276" height="51.8284" fill="white"/>
<path d="M38.4268 339.11C37.8571 337.606 38.1647 336.854 39.3496 336.854H42.8359C44.0664 336.854 44.8867 337.412 45.2969 338.529L56.4053 369.12C56.8838 370.464 57.4762 372.275 58.1826 374.554C58.9118 376.81 59.4017 378.61 59.6523 379.954H59.7891C60.0397 378.61 60.5182 376.81 61.2246 374.554C61.9538 372.275 62.5576 370.464 63.0361 369.12L74.1445 338.529C74.5547 337.412 75.375 336.854 76.6055 336.854H80.0918C81.2767 336.854 81.5843 337.606 81.0146 339.11L64.3691 383.783C63.8451 385.173 63.0931 385.868 62.1133 385.868H57.3281C56.3483 385.868 55.5964 385.173 55.0723 383.783L38.4268 339.11ZM88.124 385.868C87.0986 385.868 86.5859 385.355 86.5859 384.329V351.517C86.5859 350.492 87.0986 349.979 88.124 349.979H91.0635C92.0889 349.979 92.6016 350.492 92.6016 351.517V384.329C92.6016 385.355 92.0889 385.868 91.0635 385.868H88.124ZM88.124 343.485C87.0986 343.485 86.5859 342.972 86.5859 341.947V339.007C86.5859 337.982 87.0986 337.469 88.124 337.469H91.0635C92.0889 337.469 92.6016 337.982 92.6016 339.007V341.947C92.6016 342.972 92.0889 343.485 91.0635 343.485H88.124ZM100.907 382.518C100.201 381.857 100.053 381.242 100.463 380.672L102.001 378.519C102.502 377.835 103.243 377.87 104.223 378.621C105.567 379.647 107.06 380.467 108.7 381.082C110.364 381.698 112.255 382.005 114.374 382.005C115.627 382.005 116.744 381.857 117.724 381.561C118.703 381.242 119.558 380.661 120.287 379.818C121.039 378.975 121.415 377.847 121.415 376.434C121.415 375.614 121.233 374.839 120.868 374.11C120.526 373.381 119.979 372.8 119.228 372.367C118.498 371.911 117.781 371.558 117.074 371.307C115.912 370.874 114.75 370.521 113.588 370.247C112.449 369.951 110.945 369.507 109.076 368.914C107.823 368.527 106.638 367.98 105.521 367.274C104.405 366.545 103.425 365.565 102.582 364.334C101.762 363.104 101.352 361.406 101.352 359.242C101.352 357.031 102.024 355.129 103.368 353.534C104.713 351.939 106.399 350.856 108.427 350.286C110.455 349.694 112.426 349.398 114.34 349.398C117.165 349.398 119.433 349.728 121.142 350.389C122.873 351.027 124.366 351.79 125.619 352.679C126.348 353.203 126.451 353.807 125.927 354.491L124.389 356.541C123.91 357.202 123.17 357.179 122.167 356.473C121.324 355.881 120.128 355.322 118.578 354.798C117.029 354.274 115.673 354.012 114.511 354.012C113.075 354.012 111.845 354.172 110.819 354.491C109.794 354.81 108.962 355.356 108.324 356.131C107.686 356.906 107.367 357.817 107.367 358.866C107.367 359.663 107.493 360.381 107.743 361.019C107.994 361.634 108.461 362.204 109.145 362.728C109.828 363.252 110.785 363.674 112.016 363.993C113.93 364.494 115.673 364.95 117.245 365.36C118.84 365.77 120.276 366.271 121.552 366.864C123.215 367.638 124.491 368.493 125.38 369.427C126.291 370.361 126.918 371.375 127.26 372.469C127.602 373.54 127.772 374.736 127.772 376.058C127.772 378.496 127.043 380.558 125.585 382.245C124.149 383.931 122.543 385.059 120.766 385.628C118.988 386.175 116.846 386.449 114.34 386.449C110.945 386.449 108.028 385.97 105.59 385.013C103.174 384.033 101.614 383.202 100.907 382.518ZM136.112 385.868C135.087 385.868 134.574 385.355 134.574 384.329V351.517C134.574 350.492 135.087 349.979 136.112 349.979H139.052C140.077 349.979 140.59 350.492 140.59 351.517V384.329C140.59 385.355 140.077 385.868 139.052 385.868H136.112ZM136.112 343.485C135.087 343.485 134.574 342.972 134.574 341.947V339.007C134.574 337.982 135.087 337.469 136.112 337.469H139.052C140.077 337.469 140.59 337.982 140.59 339.007V341.947C140.59 342.972 140.077 343.485 139.052 343.485H136.112ZM148.349 367.923C148.349 362.568 149.761 358.148 152.587 354.661C155.435 351.152 159.594 349.398 165.062 349.398C170.531 349.398 174.678 351.152 177.504 354.661C180.352 358.148 181.776 362.568 181.776 367.923C181.776 373.278 180.352 377.71 177.504 381.219C174.678 384.705 170.531 386.449 165.062 386.449C159.594 386.449 155.435 384.705 152.587 381.219C149.761 377.71 148.349 373.278 148.349 367.923ZM154.706 367.923C154.706 372.708 155.652 376.252 157.543 378.553C159.434 380.855 161.941 382.005 165.062 382.005C168.184 382.005 170.691 380.855 172.582 378.553C174.473 376.252 175.419 372.708 175.419 367.923C175.419 363.138 174.473 359.595 172.582 357.293C170.691 354.992 168.184 353.841 165.062 353.841C161.941 353.841 159.434 354.992 157.543 357.293C155.652 359.595 154.706 363.138 154.706 367.923ZM191.073 385.868C190.048 385.868 189.535 385.355 189.535 384.329V351.517C189.535 350.492 190.048 349.979 191.073 349.979H193.944C194.97 349.979 195.482 350.492 195.482 351.517V354.251H195.619C197.1 352.611 198.695 351.392 200.404 350.594C202.113 349.797 204.244 349.398 206.796 349.398C210.943 349.398 213.917 350.571 215.717 352.918C217.54 355.243 218.451 358.433 218.451 362.489V384.329C218.451 385.355 217.938 385.868 216.913 385.868H213.974C212.948 385.868 212.436 385.355 212.436 384.329V364.129C212.436 359.663 211.695 356.838 210.214 355.653C208.733 354.445 206.853 353.841 204.574 353.841C201.612 353.841 199.368 354.73 197.841 356.507C196.314 358.262 195.551 361.281 195.551 365.565V384.329C195.551 385.355 195.038 385.868 194.013 385.868H191.073ZM230.756 385.868C229.617 385.868 229.047 385.241 229.047 383.988V338.734C229.047 337.481 229.617 336.854 230.756 336.854H245.111C252.859 336.854 258.088 338.164 260.8 340.785C263.511 343.382 264.867 346.96 264.867 351.517C264.867 356.074 263.511 359.663 260.8 362.284C258.088 364.881 252.859 366.18 245.111 366.18H235.609V383.988C235.609 385.241 235.04 385.868 233.9 385.868H230.756ZM235.609 360.575H245.214C250.227 360.575 253.645 359.868 255.468 358.455C257.291 357.02 258.202 354.707 258.202 351.517C258.202 348.327 257.291 346.025 255.468 344.613C253.645 343.177 250.227 342.459 245.214 342.459H235.609V360.575ZM270.849 376.297C270.849 372.241 272.74 369.268 276.522 367.376C280.328 365.485 286.002 364.38 293.544 364.061V361.737C293.544 359.595 293.054 357.749 292.074 356.2C291.117 354.627 289.203 353.841 286.332 353.841C284.509 353.841 283.051 354.023 281.957 354.388C280.863 354.73 279.861 355.197 278.949 355.789C278.061 356.359 277.206 357.1 276.386 358.011C275.771 358.695 275.189 358.729 274.643 358.114L272.865 356.063C272.364 355.493 272.535 354.81 273.378 354.012C274.586 352.873 275.759 352.018 276.898 351.449C278.038 350.879 279.451 350.4 281.137 350.013C282.846 349.603 284.577 349.398 286.332 349.398C291.094 349.398 294.49 350.628 296.518 353.089C298.546 355.527 299.56 358.877 299.56 363.138V384.329C299.56 385.355 299.047 385.868 298.021 385.868H294.945C294.057 385.868 293.612 385.355 293.612 384.329V382.655H293.544C291.744 384.067 289.978 385.059 288.246 385.628C286.537 386.175 284.623 386.449 282.504 386.449C278.767 386.449 275.884 385.56 273.856 383.783C271.851 381.982 270.849 379.487 270.849 376.297ZM277.069 376.434C277.069 377.847 277.366 378.986 277.958 379.852C278.55 380.695 279.371 381.242 280.419 381.493C281.467 381.72 282.561 381.834 283.7 381.834C285.455 381.834 287.118 381.663 288.69 381.322C290.263 380.98 291.881 380.08 293.544 378.621V368.538C288.941 368.88 285.66 369.302 283.7 369.803C281.741 370.282 280.146 371.125 278.915 372.332C277.685 373.517 277.069 374.884 277.069 376.434ZM310.839 385.868C309.813 385.868 309.301 385.355 309.301 384.329V351.517C309.301 350.492 309.813 349.979 310.839 349.979H313.71C314.735 349.979 315.248 350.492 315.248 351.517V355.619H315.385C316.479 353.568 317.766 352.018 319.247 350.97C320.728 349.922 322.574 349.398 324.784 349.398C326.243 349.398 327.268 349.523 327.86 349.774C328.384 349.979 328.578 350.321 328.441 350.799L327.655 353.602C327.541 354.012 327.245 354.172 326.767 354.08C325.969 353.921 325.217 353.841 324.511 353.841C321.845 353.841 319.646 355.049 317.914 357.464C316.182 359.857 315.316 363.127 315.316 367.274V384.329C315.316 385.355 314.804 385.868 313.778 385.868H310.839ZM335.517 385.868C334.491 385.868 333.979 385.355 333.979 384.329V336.956C333.979 335.931 334.491 335.418 335.517 335.418H338.456C339.481 335.418 339.994 335.931 339.994 336.956V365.394C339.994 366.078 339.971 366.761 339.926 367.445H339.994L353.837 350.868C354.338 350.275 354.942 349.979 355.648 349.979H358.759C360.491 349.979 360.787 350.651 359.647 351.995L348.915 364.779L361.186 383.851C362.051 385.195 361.755 385.868 360.297 385.868H356.947C356.195 385.868 355.546 385.446 354.999 384.603L345.155 369.256L339.994 375.409V384.329C339.994 385.355 339.481 385.868 338.456 385.868H335.517Z" fill="black"/>
</svg>
