<svg width="35" height="35" viewBox="0 0 35 35" fill="none" xmlns="http://www.w3.org/2000/svg">
<path fill-rule="evenodd" clip-rule="evenodd" d="M15.3125 2.91675C13.3359 2.91692 11.3879 3.38978 9.63121 4.29588C7.87449 5.20199 6.35993 6.51506 5.21389 8.12556C4.06785 9.73605 3.32356 11.5973 3.04312 13.5539C2.76268 15.5105 2.95422 17.5059 3.60176 19.3734C4.24931 21.241 5.33407 22.9266 6.76556 24.2897C8.19704 25.6527 9.93374 26.6537 11.8308 27.2091C13.7278 27.7644 15.7301 27.8581 17.6707 27.4822C19.6112 27.1064 21.4338 26.2719 22.9863 25.0484L28.3121 30.3742C28.5871 30.6399 28.9555 30.7869 29.3379 30.7836C29.7202 30.7802 30.086 30.6269 30.3564 30.3565C30.6268 30.0861 30.7802 29.7203 30.7835 29.338C30.7868 28.9556 30.6398 28.5872 30.3742 28.3122L25.0483 22.9863C26.4892 21.1585 27.3863 18.9619 27.637 16.648C27.8878 14.3341 27.482 11.9964 26.4662 9.9023C25.4503 7.80824 23.8655 6.04248 21.8929 4.80709C19.9204 3.57169 17.64 2.91659 15.3125 2.91675ZM5.83334 15.3126C5.83334 12.7985 6.83203 10.3875 8.60972 8.6098C10.3874 6.83211 12.7985 5.83341 15.3125 5.83341C17.8265 5.83341 20.2376 6.83211 22.0153 8.6098C23.793 10.3875 24.7917 12.7985 24.7917 15.3126C24.7917 17.8266 23.793 20.2377 22.0153 22.0154C20.2376 23.7931 17.8265 24.7917 15.3125 24.7917C12.7985 24.7917 10.3874 23.7931 8.60972 22.0154C6.83203 20.2377 5.83334 17.8266 5.83334 15.3126Z" fill="#F8F8F8"/>
</svg>
