<svg width="30" height="30" viewBox="0 0 30 30" fill="none" xmlns="http://www.w3.org/2000/svg">
<path d="M13.5125 16.5052C13.5125 15.9927 13.7587 15.1777 15.6712 15.1777C16.2575 15.1777 16.6187 15.2202 17.1037 15.329C16.9487 17.3365 15.9662 17.6015 15.0112 17.6015C14.4887 17.6015 13.5125 17.329 13.5125 16.5052Z" fill="#F8F8F8"/>
<path d="M8.2375 25H21.7625C22.6211 25 23.4446 24.6589 24.0518 24.0518C24.6589 23.4446 25 22.6211 25 21.7625V8.2375C25 7.37886 24.6589 6.55539 24.0518 5.94824C23.4446 5.34109 22.6211 5 21.7625 5H8.2375C7.37886 5 6.55539 5.34109 5.94824 5.94824C5.34109 6.55539 5 7.37886 5 8.2375V21.7625C5 22.6211 5.34109 23.4446 5.94824 24.0518C6.55539 24.6589 7.37886 25 8.2375 25ZM12.3325 12.3875C13.0413 11.375 13.9762 10.98 15.27 10.98C16.1825 10.98 16.9587 11.2875 17.5138 11.8687C18.0675 12.4513 18.3837 13.2838 18.4563 14.3475C18.7629 14.4758 19.0454 14.6271 19.3038 14.8013C20.3438 15.5 20.9163 16.545 20.9163 17.7425C20.9163 20.2888 18.8288 22.5 15.0513 22.5C11.8075 22.5 8.4375 20.6125 8.4375 14.995C8.4375 9.4075 11.7013 7.5 15.0413 7.5C16.5837 7.5 20.2025 7.7275 21.5625 12.2213L20.2875 12.5512C19.235 9.35125 17.0287 8.84125 15.0075 8.84125C11.6637 8.84125 9.77375 10.8763 9.77375 15.2075C9.77375 19.0913 11.8863 21.1538 15.0513 21.1538C17.655 21.1538 19.5963 19.8012 19.5963 17.82C19.5963 16.4712 18.4637 15.8263 18.405 15.8263C18.1838 16.9825 17.5913 18.9287 14.9888 18.9287C13.4725 18.9287 12.1637 17.8812 12.1637 16.5087C12.1637 14.5487 14.0238 13.8387 15.4925 13.8387C16.0425 13.8387 16.705 13.8763 17.0512 13.9462C17.0512 13.3488 16.5463 12.3263 15.2688 12.3263C14.13 12.3263 13.8187 12.6863 13.4563 13.1062L13.4263 13.14C13.1737 12.9713 12.3325 12.3875 12.3325 12.3875Z" fill="#F8F8F8"/>
</svg>
