<svg width="30" height="25" viewBox="0 0 30 25" fill="none" xmlns="http://www.w3.org/2000/svg">
<g clip-path="url(#clip0_366_371)">
<path d="M13 15.7143L18.19 12.5L13 9.28571V15.7143ZM24.56 7.325C24.69 7.82857 24.78 8.50357 24.84 9.36071C24.91 10.2179 24.94 10.9571 24.94 11.6L25 12.5C25 14.8464 24.84 16.5714 24.56 17.675C24.31 18.6393 23.73 19.2607 22.83 19.5286C22.36 19.6679 21.5 19.7643 20.18 19.8286C18.88 19.9036 17.69 19.9357 16.59 19.9357L15 20C10.81 20 8.2 19.8286 7.17 19.5286C6.27 19.2607 5.69 18.6393 5.44 17.675C5.31 17.1714 5.22 16.4964 5.16 15.6393C5.09 14.7821 5.06 14.0429 5.06 13.4L5 12.5C5 10.1536 5.16 8.42857 5.44 7.325C5.69 6.36071 6.27 5.73929 7.17 5.47143C7.64 5.33214 8.5 5.23571 9.82 5.17143C11.12 5.09643 12.31 5.06429 13.41 5.06429L15 5C19.19 5 21.8 5.17143 22.83 5.47143C23.73 5.73929 24.31 6.36071 24.56 7.325Z" fill="#F8F8F8"/>
</g>
<defs>
<clipPath id="clip0_366_371">
<rect width="20" height="15" fill="white" transform="translate(5 5)"/>
</clipPath>
</defs>
</svg>
